<svg width="100" height="54" viewBox="0 0 100 54" fill="none" xmlns="http://www.w3.org/2000/svg">
<g clip-path="url(#clip0_21_2)">
<rect width="100" height="54" fill="white"/>
<path d="M30.552 29.776L25.944 18.336C25.784 17.9627 25.6293 17.5147 25.48 16.992C25.416 17.248 25.3467 17.4933 25.272 17.728C25.1973 17.952 25.1173 18.16 25.032 18.352L20.424 29.776H30.552ZM35.56 38H34.296C34.1467 38 34.024 37.9627 33.928 37.888C33.832 37.8027 33.7573 37.696 33.704 37.568L31.048 30.992H19.928L17.272 37.568C17.2293 37.6853 17.1547 37.7867 17.048 37.872C16.9413 37.9573 16.8133 38 16.664 38H15.416L24.68 15.36H26.296L35.56 38ZM41.5238 25.92C41.7691 25.2693 42.0464 24.6933 42.3558 24.192C42.6758 23.68 43.0384 23.248 43.4438 22.896C43.8598 22.544 44.3184 22.2773 44.8198 22.096C45.3318 21.904 45.8971 21.808 46.5158 21.808C46.8464 21.808 47.1718 21.84 47.4918 21.904C47.8118 21.9573 48.0944 22.0587 48.3398 22.208L48.2118 23.264C48.1584 23.4347 48.0571 23.52 47.9078 23.52C47.7798 23.52 47.5824 23.4827 47.3158 23.408C47.0598 23.3333 46.7184 23.296 46.2918 23.296C45.6731 23.296 45.1238 23.392 44.6438 23.584C44.1744 23.7653 43.7478 24.0427 43.3638 24.416C42.9904 24.7893 42.6598 25.2533 42.3718 25.808C42.0944 26.352 41.8384 26.9813 41.6038 27.696V38H40.0678V22.08H40.8838C41.0651 22.08 41.1931 22.1173 41.2678 22.192C41.3424 22.2667 41.3904 22.3947 41.4118 22.576L41.5238 25.92ZM57.3323 38.256C56.2549 38.256 55.4123 37.9573 54.8043 37.36C54.2069 36.7627 53.9083 35.84 53.9083 34.592V23.712H51.6203C51.5029 23.712 51.4069 23.68 51.3323 23.616C51.2576 23.552 51.2203 23.4613 51.2203 23.344V22.752L53.9403 22.56L54.3243 16.864C54.3456 16.768 54.3883 16.6827 54.4523 16.608C54.5163 16.5333 54.6069 16.496 54.7243 16.496H55.4443V22.576H60.4683V23.712H55.4443V34.512C55.4443 34.9493 55.4976 35.328 55.6043 35.648C55.7216 35.9573 55.8763 36.2133 56.0683 36.416C56.2709 36.6187 56.5056 36.768 56.7723 36.864C57.0389 36.96 57.3269 37.008 57.6363 37.008C58.0203 37.008 58.3509 36.9547 58.6283 36.848C58.9056 36.7307 59.1456 36.608 59.3483 36.48C59.5509 36.3413 59.7163 36.2187 59.8443 36.112C59.9723 35.9947 60.0736 35.936 60.1483 35.936C60.2336 35.936 60.3189 35.9893 60.4043 36.096L60.8203 36.768C60.4149 37.216 59.8976 37.5787 59.2683 37.856C58.6496 38.1227 58.0043 38.256 57.3323 38.256ZM78.413 22.08L69.261 43.12C69.197 43.2693 69.1117 43.392 69.005 43.488C68.909 43.584 68.765 43.632 68.573 43.632H67.485L70.285 37.408L63.549 22.08H64.813C64.973 22.08 65.101 22.1227 65.197 22.208C65.293 22.2827 65.357 22.368 65.389 22.464L70.749 34.848C70.813 35.008 70.8663 35.1733 70.909 35.344C70.9623 35.504 71.0103 35.6693 71.053 35.84C71.1063 35.6693 71.1597 35.504 71.213 35.344C71.277 35.1733 71.341 35.008 71.405 34.848L76.701 22.464C76.7543 22.3467 76.829 22.256 76.925 22.192C77.021 22.1173 77.1277 22.08 77.245 22.08H78.413Z" fill="black"/>
<path d="M84.164 14L82.953 11.956H82.05V14H81.56V9.107H83.03C83.576 9.107 83.989 9.23767 84.269 9.499C84.5537 9.76033 84.696 10.1033 84.696 10.528C84.696 10.8827 84.5933 11.186 84.388 11.438C84.1873 11.6853 83.8887 11.8463 83.492 11.921L84.752 14H84.164ZM82.05 11.557H83.037C83.4197 11.557 83.7067 11.4637 83.898 11.277C84.094 11.0903 84.192 10.8407 84.192 10.528C84.192 10.206 84.0987 9.95867 83.912 9.786C83.7253 9.60867 83.4313 9.52 83.03 9.52H82.05V11.557Z" fill="black"/>
<circle cx="83" cy="12" r="3.85" stroke="black" stroke-width="0.3"/>
</g>
<defs>
<clipPath id="clip0_21_2">
<rect width="100" height="54" fill="white"/>
</clipPath>
</defs>
</svg>
